<?xml version="1.0" encoding="UTF-8" standalone="no"?>
<!-- Created with Inkscape (http://www.inkscape.org/) -->

<svg
   xmlns:dc="http://purl.org/dc/elements/1.1/"
   xmlns:cc="http://creativecommons.org/ns#"
   xmlns:rdf="http://www.w3.org/1999/02/22-rdf-syntax-ns#"
   xmlns:svg="http://www.w3.org/2000/svg"
   xmlns="http://www.w3.org/2000/svg"
   xmlns:xlink="http://www.w3.org/1999/xlink"
   xmlns:sodipodi="http://sodipodi.sourceforge.net/DTD/sodipodi-0.dtd"
   xmlns:inkscape="http://www.inkscape.org/namespaces/inkscape"
   width="255"
   height="255"
   id="svg2"
   version="1.1"
   inkscape:version="0.47 r22583"
   sodipodi:docname="R22.svg">
  <defs
     id="defs4">
    <linearGradient
       inkscape:collect="always"
       id="linearGradient4347">
      <stop
         style="stop-color:#000000;stop-opacity:1;"
         offset="0"
         id="stop4349" />
      <stop
         style="stop-color:#ffffff;stop-opacity:0"
         offset="1"
         id="stop4351" />
    </linearGradient>
    <linearGradient
       inkscape:collect="always"
       id="linearGradient4305">
      <stop
         style="stop-color:#000000;stop-opacity:0.90769231"
         offset="0"
         id="stop4307" />
      <stop
         style="stop-color:#000000;stop-opacity:1"
         offset="1"
         id="stop4309" />
    </linearGradient>
    <linearGradient
       inkscape:collect="always"
       id="linearGradient4297">
      <stop
         style="stop-color:#000000;stop-opacity:0.8974359"
         offset="0"
         id="stop4299" />
      <stop
         style="stop-color:#000000;stop-opacity:1"
         offset="1"
         id="stop4301" />
    </linearGradient>
    <linearGradient
       inkscape:collect="always"
       id="linearGradient4289">
      <stop
         style="stop-color:#ffffff;stop-opacity:1;"
         offset="0"
         id="stop4291" />
      <stop
         style="stop-color:#ffffff;stop-opacity:0;"
         offset="1"
         id="stop4293" />
    </linearGradient>
    <linearGradient
       inkscape:collect="always"
       id="linearGradient4279">
      <stop
         style="stop-color:#ffffff;stop-opacity:1;"
         offset="0"
         id="stop4281" />
      <stop
         style="stop-color:#ffffff;stop-opacity:0;"
         offset="1"
         id="stop4283" />
    </linearGradient>
    <linearGradient
       inkscape:collect="always"
       id="linearGradient4247">
      <stop
         style="stop-color:#ffffff;stop-opacity:1;"
         offset="0"
         id="stop4249" />
      <stop
         style="stop-color:#ffffff;stop-opacity:0;"
         offset="1"
         id="stop4251" />
    </linearGradient>
    <linearGradient
       inkscape:collect="always"
       id="linearGradient4225">
      <stop
         style="stop-color:#ffffff;stop-opacity:1;"
         offset="0"
         id="stop4227" />
      <stop
         style="stop-color:#ffffff;stop-opacity:0;"
         offset="1"
         id="stop4229" />
    </linearGradient>
    <linearGradient
       id="linearGradient4217"
       inkscape:collect="always">
      <stop
         id="stop4219"
         offset="0"
         style="stop-color:#ffffff;stop-opacity:0.86153846" />
      <stop
         id="stop4221"
         offset="1"
         style="stop-color:#ffffff;stop-opacity:0;" />
    </linearGradient>
    <linearGradient
       inkscape:collect="always"
       id="linearGradient4169">
      <stop
         style="stop-color:#ffffff;stop-opacity:0.88717949"
         offset="0"
         id="stop4171" />
      <stop
         style="stop-color:#ffffff;stop-opacity:0;"
         offset="1"
         id="stop4173" />
    </linearGradient>
    <linearGradient
       inkscape:collect="always"
       id="linearGradient4109">
      <stop
         style="stop-color:#ffffff;stop-opacity:1"
         offset="0"
         id="stop4111" />
      <stop
         style="stop-color:#ffffff;stop-opacity:0;"
         offset="1"
         id="stop4113" />
    </linearGradient>
    <linearGradient
       inkscape:collect="always"
       id="linearGradient4087">
      <stop
         style="stop-color:#ffffff;stop-opacity:1;"
         offset="0"
         id="stop4089" />
      <stop
         style="stop-color:#ffffff;stop-opacity:0;"
         offset="1"
         id="stop4091" />
    </linearGradient>
    <linearGradient
       inkscape:collect="always"
       id="linearGradient4067">
      <stop
         style="stop-color:#ffffff;stop-opacity:0.81025641"
         offset="0"
         id="stop4069" />
      <stop
         style="stop-color:#ffffff;stop-opacity:0;"
         offset="1"
         id="stop4071" />
    </linearGradient>
    <linearGradient
       inkscape:collect="always"
       id="linearGradient4059">
      <stop
         style="stop-color:#ffffff;stop-opacity:0.86153846"
         offset="0"
         id="stop4061" />
      <stop
         style="stop-color:#ffffff;stop-opacity:0;"
         offset="1"
         id="stop4063" />
    </linearGradient>
    <linearGradient
       inkscape:collect="always"
       id="linearGradient4045">
      <stop
         style="stop-color:#fdf198;stop-opacity:1"
         offset="0"
         id="stop4047" />
      <stop
         id="stop4413"
         offset="0.83384037"
         style="stop-color:#f2bd28;stop-opacity:1;" />
      <stop
         style="stop-color:#c8940d;stop-opacity:1"
         offset="1"
         id="stop4049" />
    </linearGradient>
    <linearGradient
       inkscape:collect="always"
       id="linearGradient4029">
      <stop
         style="stop-color:#fdf198;stop-opacity:1"
         offset="0"
         id="stop4031" />
      <stop
         id="stop4407"
         offset="0.76973456"
         style="stop-color:#f3c237;stop-opacity:1;" />
      <stop
         style="stop-color:#d9b00c;stop-opacity:1"
         offset="1"
         id="stop4033" />
    </linearGradient>
    <linearGradient
       id="linearGradient4011">
      <stop
         id="stop4013"
         offset="0"
         style="stop-color:#ffffff;stop-opacity:0.97948718" />
      <stop
         style="stop-color:#ffffff;stop-opacity:1"
         offset="0.3170684"
         id="stop4015" />
      <stop
         id="stop4017"
         offset="0.68013477"
         style="stop-color:#efefef;stop-opacity:1" />
      <stop
         id="stop4019"
         offset="1"
         style="stop-color:#cfcfcf;stop-opacity:1" />
    </linearGradient>
    <linearGradient
       id="linearGradient3987"
       inkscape:collect="always">
      <stop
         id="stop3989"
         offset="0"
         style="stop-color:#ffffff;stop-opacity:0.65128205" />
      <stop
         style="stop-color:#ffffff;stop-opacity:0.87179487"
         offset="0.47904357"
         id="stop3991" />
      <stop
         id="stop3993"
         offset="0.75675213"
         style="stop-color:#ffffff;stop-opacity:0.91282051" />
      <stop
         id="stop3995"
         offset="1"
         style="stop-color:#ffffff;stop-opacity:0.73846154" />
    </linearGradient>
    <linearGradient
       id="linearGradient3959">
      <stop
         style="stop-color:#ffffff;stop-opacity:1"
         offset="0"
         id="stop3961" />
      <stop
         id="stop3963"
         offset="0.3170684"
         style="stop-color:#ffffff;stop-opacity:1" />
      <stop
         style="stop-color:#efefef;stop-opacity:1"
         offset="0.83167374"
         id="stop3965" />
      <stop
         style="stop-color:#cfcfcf;stop-opacity:1"
         offset="1"
         id="stop3967" />
    </linearGradient>
    <linearGradient
       id="linearGradient3947"
       inkscape:collect="always">
      <stop
         id="stop3949"
         offset="0"
         style="stop-color:#f2bc2e;stop-opacity:1;" />
      <stop
         style="stop-color:#f2bc2e;stop-opacity:0.67058824;"
         offset="0.14494574"
         id="stop3951" />
      <stop
         id="stop3953"
         offset="0.32009608"
         style="stop-color:#828282;stop-opacity:0.43076923" />
      <stop
         id="stop3955"
         offset="1"
         style="stop-color:#828282;stop-opacity:0.05128205" />
    </linearGradient>
    <linearGradient
       inkscape:collect="always"
       id="linearGradient3869">
      <stop
         style="stop-color:#f2bc2e;stop-opacity:1;"
         offset="0"
         id="stop3871" />
      <stop
         id="stop3877"
         offset="0.25837323"
         style="stop-color:#f1b516;stop-opacity:1" />
      <stop
         style="stop-color:#f5d479;stop-opacity:1"
         offset="0.6149413"
         id="stop3879" />
      <stop
         style="stop-color:#e7a712;stop-opacity:1"
         offset="1"
         id="stop3873" />
    </linearGradient>
    <linearGradient
       id="linearGradient3796">
      <stop
         style="stop-color:#cccccc;stop-opacity:1;"
         offset="0"
         id="stop3798" />
      <stop
         style="stop-color:#cccccc;stop-opacity:0;"
         offset="1"
         id="stop3800" />
    </linearGradient>
    <inkscape:perspective
       sodipodi:type="inkscape:persp3d"
       inkscape:vp_x="0 : 526.18109 : 1"
       inkscape:vp_y="0 : 1000 : 0"
       inkscape:vp_z="744.09448 : 526.18109 : 1"
       inkscape:persp3d-origin="372.04724 : 350.78739 : 1"
       id="perspective10" />
    <inkscape:perspective
       id="perspective2902"
       inkscape:persp3d-origin="0.5 : 0.33333333 : 1"
       inkscape:vp_z="1 : 0.5 : 1"
       inkscape:vp_y="0 : 1000 : 0"
       inkscape:vp_x="0 : 0.5 : 1"
       sodipodi:type="inkscape:persp3d" />
    <linearGradient
       inkscape:collect="always"
       xlink:href="#linearGradient3796"
       id="linearGradient3802"
       x1="120.44572"
       y1="-17.955486"
       x2="110.77843"
       y2="45.184139"
       gradientUnits="userSpaceOnUse" />
    <filter
       inkscape:collect="always"
       id="filter3913">
      <feGaussianBlur
         inkscape:collect="always"
         stdDeviation="0.72391673"
         id="feGaussianBlur3915" />
    </filter>
    <linearGradient
       inkscape:collect="always"
       xlink:href="#linearGradient3869"
       id="linearGradient3919"
       gradientUnits="userSpaceOnUse"
       x1="96.239952"
       y1="74.723351"
       x2="136.86353"
       y2="54.723148"
       gradientTransform="translate(-0.31867502,-0.63735062)" />
    <filter
       inkscape:collect="always"
       id="filter3941"
       x="-0.13455538"
       width="1.2691108"
       y="-0.16974047"
       height="1.3394809">
      <feGaussianBlur
         inkscape:collect="always"
         stdDeviation="2.5744404"
         id="feGaussianBlur3943" />
    </filter>
    <linearGradient
       inkscape:collect="always"
       xlink:href="#linearGradient3947"
       id="linearGradient3945"
       x1="111.2176"
       y1="59.514553"
       x2="112.10409"
       y2="118.9361"
       gradientUnits="userSpaceOnUse" />
    <radialGradient
       inkscape:collect="always"
       xlink:href="#linearGradient3959"
       id="radialGradient4005"
       cx="112.13022"
       cy="161.323"
       fx="112.13022"
       fy="161.323"
       r="70.412498"
       gradientTransform="matrix(1,-1.0002335e-8,1.4662861e-8,1.4659434,-2.3654565e-6,-74.341052)"
       gradientUnits="userSpaceOnUse" />
    <radialGradient
       inkscape:collect="always"
       xlink:href="#linearGradient4011"
       id="radialGradient4009"
       gradientUnits="userSpaceOnUse"
       gradientTransform="matrix(-1,2.5455199e-8,-1.8941441e-8,-1.27303,224.26045,311.18532)"
       cx="112.13023"
       cy="168.96802"
       fx="112.13023"
       fy="168.96802"
       r="70.412498" />
    <radialGradient
       inkscape:collect="always"
       xlink:href="#linearGradient4029"
       id="radialGradient4035"
       cx="64.136978"
       cy="192.62276"
       fx="64.136978"
       fy="192.62276"
       r="43.690595"
       gradientTransform="matrix(1,0,0,0.61120932,0,74.889936)"
       gradientUnits="userSpaceOnUse" />
    <radialGradient
       inkscape:collect="always"
       xlink:href="#linearGradient4045"
       id="radialGradient4051"
       cx="163.25931"
       cy="192.86808"
       fx="163.25931"
       fy="192.86808"
       r="43.353482"
       gradientTransform="matrix(1,0,0,0.57998361,0,81.007755)"
       gradientUnits="userSpaceOnUse" />
    <radialGradient
       inkscape:collect="always"
       xlink:href="#linearGradient3987"
       id="radialGradient4053"
       cx="112.2537"
       cy="76.760452"
       fx="112.2537"
       fy="76.760452"
       r="50.091427"
       gradientTransform="matrix(0.99999992,-0.78890037,0.69030862,0.87502625,-52.988387,94.315217)"
       gradientUnits="userSpaceOnUse" />
    <linearGradient
       inkscape:collect="always"
       xlink:href="#linearGradient4059"
       id="linearGradient4065"
       x1="94.432243"
       y1="15.130143"
       x2="88.481445"
       y2="31.041246"
       gradientUnits="userSpaceOnUse" />
    <linearGradient
       inkscape:collect="always"
       xlink:href="#linearGradient4067"
       id="linearGradient4073"
       x1="159.1002"
       y1="29.762785"
       x2="145.11371"
       y2="49.077888"
       gradientUnits="userSpaceOnUse" />
    <linearGradient
       inkscape:collect="always"
       xlink:href="#linearGradient4087"
       id="linearGradient4093"
       x1="81.035408"
       y1="48.292648"
       x2="65.648651"
       y2="56.520359"
       gradientUnits="userSpaceOnUse" />
    <filter
       inkscape:collect="always"
       id="filter4103"
       x="-0.13184519"
       width="1.2636904"
       y="-0.10130186"
       height="1.2026037">
      <feGaussianBlur
         inkscape:collect="always"
         stdDeviation="1.2767701"
         id="feGaussianBlur4105" />
    </filter>
    <linearGradient
       inkscape:collect="always"
       xlink:href="#linearGradient4109"
       id="linearGradient4115"
       x1="126.26488"
       y1="57.271168"
       x2="114.6656"
       y2="74.92131"
       gradientUnits="userSpaceOnUse" />
    <filter
       inkscape:collect="always"
       id="filter4133">
      <feGaussianBlur
         inkscape:collect="always"
         stdDeviation="0.55278016"
         id="feGaussianBlur4135" />
    </filter>
    <inkscape:perspective
       id="perspective4147"
       inkscape:persp3d-origin="0.5 : 0.33333333 : 1"
       inkscape:vp_z="1 : 0.5 : 1"
       inkscape:vp_y="0 : 1000 : 0"
       inkscape:vp_x="0 : 0.5 : 1"
       sodipodi:type="inkscape:persp3d" />
    <radialGradient
       inkscape:collect="always"
       xlink:href="#linearGradient4169"
       id="radialGradient4177"
       cx="65.447945"
       cy="204.37044"
       fx="65.447945"
       fy="204.37044"
       r="24.079903"
       gradientTransform="matrix(-0.9859985,0.71210892,-0.9999994,-1.3846169,334.34985,424.06841)"
       gradientUnits="userSpaceOnUse" />
    <inkscape:perspective
       id="perspective4187"
       inkscape:persp3d-origin="0.5 : 0.33333333 : 1"
       inkscape:vp_z="1 : 0.5 : 1"
       inkscape:vp_y="0 : 1000 : 0"
       inkscape:vp_x="0 : 0.5 : 1"
       sodipodi:type="inkscape:persp3d" />
    <radialGradient
       inkscape:collect="always"
       xlink:href="#linearGradient4169-9"
       id="radialGradient4177-3"
       cx="65.447945"
       cy="204.37044"
       fx="65.447945"
       fy="204.37044"
       r="24.079903"
       gradientTransform="matrix(-0.9859985,0.71210892,-0.9999994,-1.3846169,334.34985,424.06841)"
       gradientUnits="userSpaceOnUse" />
    <linearGradient
       inkscape:collect="always"
       id="linearGradient4169-9">
      <stop
         style="stop-color:#ffffff;stop-opacity:1;"
         offset="0"
         id="stop4171-2" />
      <stop
         style="stop-color:#ffffff;stop-opacity:0;"
         offset="1"
         id="stop4173-9" />
    </linearGradient>
    <radialGradient
       r="24.079903"
       fy="204.37044"
       fx="65.447945"
       cy="204.37044"
       cx="65.447945"
       gradientTransform="matrix(-0.9859985,0.71210892,-0.9999994,-1.3846169,334.34985,424.06841)"
       gradientUnits="userSpaceOnUse"
       id="radialGradient4196"
       xlink:href="#linearGradient4217"
       inkscape:collect="always" />
    <linearGradient
       inkscape:collect="always"
       xlink:href="#linearGradient4225"
       id="linearGradient4231"
       x1="-22.211828"
       y1="106.43255"
       x2="47.335281"
       y2="97.318604"
       gradientUnits="userSpaceOnUse"
       gradientTransform="translate(1.2231484,-1.4356787)" />
    <filter
       inkscape:collect="always"
       id="filter4241">
      <feGaussianBlur
         inkscape:collect="always"
         stdDeviation="0.60125955"
         id="feGaussianBlur4243" />
    </filter>
    <linearGradient
       inkscape:collect="always"
       xlink:href="#linearGradient4247"
       id="linearGradient4253"
       x1="247.46904"
       y1="124.3694"
       x2="172.79248"
       y2="78.849083"
       gradientUnits="userSpaceOnUse"
       gradientTransform="translate(-0.7146078,-0.71460778)" />
    <filter
       inkscape:collect="always"
       id="filter4271">
      <feGaussianBlur
         inkscape:collect="always"
         stdDeviation="0.5673773"
         id="feGaussianBlur4273" />
    </filter>
    <linearGradient
       inkscape:collect="always"
       xlink:href="#linearGradient4279"
       id="linearGradient4285"
       x1="110.5826"
       y1="38.702652"
       x2="100.56601"
       y2="43.852955"
       gradientUnits="userSpaceOnUse" />
    <linearGradient
       inkscape:collect="always"
       xlink:href="#linearGradient4289"
       id="linearGradient4295"
       x1="123.8671"
       y1="40.496452"
       x2="119.53436"
       y2="47.094006"
       gradientUnits="userSpaceOnUse" />
    <radialGradient
       inkscape:collect="always"
       xlink:href="#linearGradient4297"
       id="radialGradient4303"
       cx="104.92486"
       cy="44.986896"
       fx="104.92486"
       fy="44.986896"
       r="9.5522202"
       gradientTransform="matrix(1,0,0,1.2141682,0,-9.6347618)"
       gradientUnits="userSpaceOnUse" />
    <radialGradient
       inkscape:collect="always"
       xlink:href="#linearGradient4305"
       id="radialGradient4311"
       cx="120.27167"
       cy="45.139776"
       fx="120.27167"
       fy="45.139776"
       r="6.8425182"
       gradientTransform="matrix(1,0,0,1.4153441,0,-18.74854)"
       gradientUnits="userSpaceOnUse" />
    <filter
       inkscape:collect="always"
       id="filter4337">
      <feGaussianBlur
         inkscape:collect="always"
         stdDeviation="0.24433154"
         id="feGaussianBlur4339" />
    </filter>
    <filter
       inkscape:collect="always"
       id="filter4341">
      <feGaussianBlur
         inkscape:collect="always"
         stdDeviation="0.23014457"
         id="feGaussianBlur4343" />
    </filter>
    <linearGradient
       inkscape:collect="always"
       xlink:href="#linearGradient4347"
       id="linearGradient4353"
       x1="96.498695"
       y1="56.100822"
       x2="103.77811"
       y2="49.672104"
       gradientUnits="userSpaceOnUse" />
    <filter
       inkscape:collect="always"
       id="filter4359"
       x="-0.1191128"
       width="1.2382256"
       y="-0.089973365"
       height="1.1799467">
      <feGaussianBlur
         inkscape:collect="always"
         stdDeviation="0.41370191"
         id="feGaussianBlur4361" />
    </filter>
    <inkscape:perspective
       id="perspective4371"
       inkscape:persp3d-origin="0.5 : 0.33333333 : 1"
       inkscape:vp_z="1 : 0.5 : 1"
       inkscape:vp_y="0 : 1000 : 0"
       inkscape:vp_x="0 : 0.5 : 1"
       sodipodi:type="inkscape:persp3d" />
    <linearGradient
       inkscape:collect="always"
       xlink:href="#linearGradient4347-9"
       id="linearGradient4353-1"
       x1="96.498695"
       y1="56.100822"
       x2="103.77811"
       y2="49.672104"
       gradientUnits="userSpaceOnUse" />
    <linearGradient
       inkscape:collect="always"
       id="linearGradient4347-9">
      <stop
         style="stop-color:#000000;stop-opacity:1;"
         offset="0"
         id="stop4349-3" />
      <stop
         style="stop-color:#ffffff;stop-opacity:0"
         offset="1"
         id="stop4351-8" />
    </linearGradient>
    <filter
       color-interpolation-filters="sRGB"
       inkscape:collect="always"
       id="filter4359-9"
       x="-0.1191128"
       width="1.2382256"
       y="-0.089973368"
       height="1.1799467">
      <feGaussianBlur
         inkscape:collect="always"
         stdDeviation="0.41370191"
         id="feGaussianBlur4361-1" />
    </filter>
    <linearGradient
       gradientTransform="translate(17.028639,-0.29499718)"
       y2="49.672104"
       x2="103.77811"
       y1="56.100822"
       x1="96.498695"
       gradientUnits="userSpaceOnUse"
       id="linearGradient4382"
       xlink:href="#linearGradient4347-9"
       inkscape:collect="always" />
  </defs>
  <sodipodi:namedview
     id="base"
     pagecolor="#ffffff"
     bordercolor="#666666"
     borderopacity="1.0"
     inkscape:pageopacity="0.0"
     inkscape:pageshadow="2"
     inkscape:zoom="3.3549105"
     inkscape:cx="114.70284"
     inkscape:cy="78.324539"
     inkscape:document-units="px"
     inkscape:current-layer="layer2"
     showgrid="false"
     inkscape:window-width="1280"
     inkscape:window-height="716"
     inkscape:window-x="0"
     inkscape:window-y="31"
     inkscape:window-maximized="1" />
  <metadata
     id="metadata7">
    <rdf:RDF>
      <cc:Work
         rdf:about="">
        <dc:format>image/svg+xml</dc:format>
        <dc:type
           rdf:resource="http://purl.org/dc/dcmitype/StillImage" />
        <dc:title></dc:title>
      </cc:Work>
    </rdf:RDF>
  </metadata>
  <g
     inkscape:label="Layer 1"
     inkscape:groupmode="layer"
     id="layer1"
     transform="translate(0,-797.36218)"
     style="display:none">
    <image
       xlink:href="file:///home/jamiesun/%E5%9B%BE%E7%89%87/62e63771jw6ddj6f7flkij.jpg.png"
       width="482"
       height="442"
       id="image2914"
       x="-113.5"
       y="703.86218" />
    <image
       xlink:href="file:///home/jamiesun/%E5%9B%BE%E7%89%87/62e63771jw6ddj6f7flkij.jpg.png"
       width="482"
       height="442"
       id="image2916"
       x="-112.81564"
       y="703.86218" />
    <image
       xlink:href="file:///home/jamiesun/%E5%9B%BE%E7%89%87/62e63771jw6ddj6f7flkij.jpg.png"
       width="482"
       height="442"
       id="image2918"
       x="-104.26103"
       y="705.91528" />
    <image
       xlink:href="file:///home/jamiesun/%E5%9B%BE%E7%89%87/62e63771jw6ddj6f7flkij.jpg.png"
       width="482"
       height="442"
       id="image2920"
       x="-81.676888"
       y="706.59967" />
    <image
       xlink:href="file:///home/jamiesun/%E5%9B%BE%E7%89%87/62e63771jw6ddj6f7flkij.jpg.png"
       width="482"
       height="442"
       id="image2922"
       x="-46.431938"
       y="707.96838" />
    <image
       xlink:href="file:///home/jamiesun/%E5%9B%BE%E7%89%87/62e63771jw6ddj6f7flkij.jpg.png"
       width="482"
       height="442"
       id="image2924"
       x="-34.113316"
       y="710.02148" />
    <image
       xlink:href="file:///home/jamiesun/%E5%9B%BE%E7%89%87/62e63771jw6ddj6f7flkij.jpg.png"
       width="482"
       height="442"
       id="image2926"
       x="-29.664923"
       y="710.36371" />
    <image
       xlink:href="file:///home/jamiesun/%E5%9B%BE%E7%89%87/62e63771jw6ddj6f7flkij.jpg.png"
       width="482"
       height="442"
       id="image2928"
       x="-27.954002"
       y="710.70587" />
    <image
       xlink:href="file:///home/jamiesun/%E5%9B%BE%E7%89%87/62e63771jw6ddj6f7flkij.jpg.png"
       width="482"
       height="442"
       id="image2930"
       x="-24.18998"
       y="711.04803" />
    <image
       xlink:href="file:///home/jamiesun/%E5%9B%BE%E7%89%87/62e63771jw6ddj6f7flkij.jpg.png"
       width="482"
       height="442"
       id="image2932"
       x="-20.425955"
       y="712.41681" />
    <image
       xlink:href="file:///home/jamiesun/%E5%9B%BE%E7%89%87/62e63771jw6ddj6f7flkij.jpg.png"
       width="482"
       height="442"
       id="image2934"
       x="-20.425955"
       y="712.41681" />
    <image
       xlink:href="file:///home/jamiesun/%E5%9B%BE%E7%89%87/62e63771jw6ddj6f7flkij.jpg.png"
       width="482"
       height="442"
       id="image2936"
       x="-20.425955"
       y="712.41681" />
    <image
       xlink:href="file:///home/jamiesun/%E5%9B%BE%E7%89%87/62e63771jw6ddj6f7flkij.jpg.png"
       width="482"
       height="442"
       id="image2938"
       x="-20.425955"
       y="712.41681" />
    <image
       xlink:href="file:///home/jamiesun/%E5%9B%BE%E7%89%87/62e63771jw6ddj6f7flkij.jpg.png"
       width="482"
       height="442"
       id="image2940"
       x="-20.425955"
       y="712.41681" />
    <image
       xlink:href="file:///home/jamiesun/%E5%9B%BE%E7%89%87/62e63771jw6ddj6f7flkij.jpg.png"
       width="482"
       height="442"
       id="image2942"
       x="-20.425955"
       y="712.41681" />
    <image
       xlink:href="file:///home/jamiesun/%E5%9B%BE%E7%89%87/62e63771jw6ddj6f7flkij.jpg.png"
       width="482"
       height="442"
       id="image2944"
       x="-20.425955"
       y="712.41681" />
    <image
       xlink:href="file:///home/jamiesun/%E5%9B%BE%E7%89%87/62e63771jw6ddj6f7flkij.jpg.png"
       width="482"
       height="442"
       id="image2946"
       x="-20.425955"
       y="712.41681" />
    <image
       xlink:href="file:///home/jamiesun/%E5%9B%BE%E7%89%87/62e63771jw6ddj6f7flkij.jpg.png"
       width="482"
       height="442"
       id="image2948"
       x="-20.425955"
       y="712.41681" />
    <image
       xlink:href="file:///home/jamiesun/%E5%9B%BE%E7%89%87/62e63771jw6ddj6f7flkij.jpg.png"
       width="482"
       height="442"
       id="image2950"
       x="-20.425955"
       y="712.41681" />
    <image
       xlink:href="file:///home/jamiesun/%E5%9B%BE%E7%89%87/62e63771jw6ddj6f7flkij.jpg.png"
       width="482"
       height="442"
       id="image2952"
       x="-20.425955"
       y="712.41681" />
    <image
       xlink:href="file:///home/jamiesun/%E5%9B%BE%E7%89%87/62e63771jw6ddj6f7flkij.jpg.png"
       width="482"
       height="442"
       id="image2954"
       x="-20.425955"
       y="712.41681" />
    <image
       xlink:href="file:///home/jamiesun/%E5%9B%BE%E7%89%87/62e63771jw6ddj6f7flkij.jpg.png"
       width="482"
       height="442"
       id="image2956"
       x="-20.425955"
       y="712.41681" />
    <image
       xlink:href="file:///home/jamiesun/%E5%9B%BE%E7%89%87/62e63771jw6ddj6f7flkij.jpg.png"
       width="482"
       height="442"
       id="image2958"
       x="-20.425955"
       y="712.41681" />
    <image
       xlink:href="file:///home/jamiesun/%E5%9B%BE%E7%89%87/62e63771jw6ddj6f7flkij.jpg.png"
       width="482"
       height="442"
       id="image2960"
       x="-20.425955"
       y="712.41681" />
    <image
       xlink:href="file:///home/jamiesun/%E5%9B%BE%E7%89%87/62e63771jw6ddj6f7flkij.jpg.png"
       width="482"
       height="442"
       id="image2962"
       x="-20.425955"
       y="712.41681" />
    <image
       xlink:href="file:///home/jamiesun/%E5%9B%BE%E7%89%87/62e63771jw6ddj6f7flkij.jpg.png"
       width="482"
       height="442"
       id="image2964"
       x="-20.425955"
       y="712.41681" />
    <image
       xlink:href="file:///home/jamiesun/%E5%9B%BE%E7%89%87/62e63771jw6ddj6f7flkij.jpg.png"
       width="482"
       height="442"
       id="image2966"
       x="-20.425955"
       y="712.41681" />
    <image
       xlink:href="file:///home/jamiesun/%E5%9B%BE%E7%89%87/62e63771jw6ddj6f7flkij.jpg.png"
       width="482"
       height="442"
       id="image2968"
       x="-20.425955"
       y="712.41681" />
    <image
       xlink:href="file:///home/jamiesun/%E5%9B%BE%E7%89%87/62e63771jw6ddj6f7flkij.jpg.png"
       width="482"
       height="442"
       id="image2970"
       x="-20.425955"
       y="712.41681" />
    <image
       xlink:href="file:///home/jamiesun/%E5%9B%BE%E7%89%87/62e63771jw6ddj6f7flkij.jpg.png"
       width="482"
       height="442"
       id="image2972"
       x="-20.425955"
       y="712.41681" />
    <image
       xlink:href="file:///home/jamiesun/%E5%9B%BE%E7%89%87/62e63771jw6ddj6f7flkij.jpg.png"
       width="482"
       height="442"
       id="image2974"
       x="-20.425955"
       y="712.41681" />
    <image
       xlink:href="file:///home/jamiesun/%E5%9B%BE%E7%89%87/62e63771jw6ddj6f7flkij.jpg.png"
       width="482"
       height="442"
       id="image2976"
       x="-20.425955"
       y="712.41681" />
    <image
       xlink:href="file:///home/jamiesun/%E5%9B%BE%E7%89%87/62e63771jw6ddj6f7flkij.jpg.png"
       width="482"
       height="442"
       id="image2978"
       x="-20.425955"
       y="712.41681" />
    <image
       xlink:href="file:///home/jamiesun/%E5%9B%BE%E7%89%87/62e63771jw6ddj6f7flkij.jpg.png"
       width="482"
       height="442"
       id="image2980"
       x="-20.425955"
       y="712.41681" />
    <image
       xlink:href="file:///home/jamiesun/%E5%9B%BE%E7%89%87/62e63771jw6ddj6f7flkij.jpg.png"
       width="482"
       height="442"
       id="image2982"
       x="-20.425955"
       y="712.41681" />
    <image
       xlink:href="file:///home/jamiesun/%E5%9B%BE%E7%89%87/62e63771jw6ddj6f7flkij.jpg.png"
       width="482"
       height="442"
       id="image2984"
       x="-20.425955"
       y="712.41681" />
    <image
       xlink:href="file:///home/jamiesun/%E5%9B%BE%E7%89%87/62e63771jw6ddj6f7flkij.jpg.png"
       width="482"
       height="442"
       id="image2986"
       x="-20.425955"
       y="712.41681" />
    <image
       xlink:href="file:///home/jamiesun/%E5%9B%BE%E7%89%87/62e63771jw6ddj6f7flkij.jpg.png"
       width="482"
       height="442"
       id="image2988"
       x="-20.425955"
       y="712.41681" />
    <image
       xlink:href="file:///home/jamiesun/%E5%9B%BE%E7%89%87/62e63771jw6ddj6f7flkij.jpg.png"
       width="482"
       height="442"
       id="image2990"
       x="-20.425955"
       y="712.41681" />
    <image
       xlink:href="file:///home/jamiesun/%E5%9B%BE%E7%89%87/62e63771jw6ddj6f7flkij.jpg.png"
       width="482"
       height="442"
       id="image2992"
       x="-20.425955"
       y="712.41681" />
    <image
       y="713.44336"
       x="-19.741587"
       id="image2904"
       height="442"
       width="482"
       xlink:href="file:///home/jamiesun/%E5%9B%BE%E7%89%87/62e63771jw6ddj6f7flkij.jpg.png" />
  </g>
  <g
     inkscape:groupmode="layer"
     id="layer2"
     inkscape:label="层">
    <path
       sodipodi:nodetypes="cssscssscccssccssscccc"
       id="path4007"
       d="M 75.622661,69.878463 57.831378,88.762909 c -5.519843,5.859001 -11.0178,14.398651 -13.20755,24.181921 -2.814449,12.57427 -3.536609,22.88959 -2.374553,31.98507 1.932082,15.12251 5.715984,23.5518 5.715984,23.5518 0,0 12.070439,-2.61946 18.372201,-2.59648 5.780355,0.0211 20.003967,4.74376 26.995529,10.3869 4.826461,3.89561 8.920821,8.40811 10.895331,14.32954 l 3.21745,9.6489 8.89679,0.3686 4.69211,3.0076 c 0,0 -1.80123,-2.29086 -0.84729,-5.67788 1.65256,-5.8675 3.30723,-9.84122 6.35295,-18.57154 1.89781,-5.43993 15.34579,-10.27329 22.06739,-10.96453 11.62343,-1.31517 19.48547,0.26787 29.78948,0.9976 0,0 4.54232,-20.94939 4.11747,-31.09515 -0.2303,-5.49975 -1.79491,-17.95727 -3.60224,-23.15668 0,0 -5.04748,-13.99362 -8.84699,-20.301828 -6.9955,-11.614392 -27.7169,-28.742313 -27.7169,-28.742313 l 0.68437,0.684368 -27.03254,-7.870232 -40.377709,10.949888 z"
       style="fill:url(#radialGradient4005);stroke:none;stroke-width:1px;stroke-linecap:butt;stroke-linejoin:miter;stroke-opacity:1;fill-opacity:1" />
    <path
       style="fill:#000000;stroke:none;stroke-width:1px;stroke-linecap:butt;stroke-linejoin:miter;stroke-opacity:1"
       d="m 161.51084,-4.7176468 c 12.45375,12.5264685 18.13575,34.2183988 19.84667,49.9588618 1.71092,15.740464 4.4484,22.584141 11.29208,30.112191 6.84367,7.528045 24.97943,22.926328 27.03253,24.979434 2.0531,2.0531 11.63426,11.63425 11.63426,11.63425 0,0 4.1062,8.89679 2.73747,13.34518 -1.36874,4.44839 -5.13276,3.76402 -5.13276,3.76402 0,0 -13.34518,-9.58115 -18.82012,-10.6077 -5.47495,-1.02655 -9.92334,-3.76403 -9.92334,-3.76403 l -1.71092,1.36874 c 0,0 0.68437,12.31862 -2.73747,26.34817 -3.42184,14.02954 -16.42483,26.69035 -16.42483,26.69035 0,0 15.73825,4.45594 20.87322,10.26552 3.91783,4.43254 7.83882,11.20737 5.81713,16.76701 0,0 -0.65656,9.25708 -4.10621,11.29208 -21.67435,12.78602 -58.54877,12.09457 -77.67576,-1.02655 0,0 -3.3198,-3.13594 -5.13276,-4.10621 -3.82147,-2.04519 -10.3603,-3.43549 -13.00299,0 l -3.42184,4.44839 c -14.756702,19.1837 -56.232238,11.29207 -72.885193,4.44839 -8.033869,-3.30159 -10.607704,-7.18586 -8.896784,-15.0561 1.71092,-7.87023 9.238968,-17.45138 9.238968,-17.45138 l 16.767015,-9.58115 c 0,0 -12.86194,-14.50666 -16.082647,-24.63725 -4.220985,-13.27691 -3.846519,-22.14665 -2.395288,-31.13874 l -2.395288,-0.68437 -28.4012709,15.39828 c 0,0 -5.1327598,-0.34218 -5.8171278,-2.39529 -0.684368,-2.0531 0.2561547,-5.51796 0.2561547,-5.51796 0,0 0.7697529,-5.47494 2.1384889,-6.50149 1.3687359,-1.02656 25.6644431,-25.278602 25.6644431,-25.278602 0,0 16.424832,-17.109199 18.135752,-21.215407 1.71092,-4.106208 3.079656,-27.716903 6.159311,-38.324607 C 47.22139,18.20868 55.433806,2.468217 62.961854,-4.3754628 70.489902,-11.219143 87.523103,-24.591986 111.55198,-25.248686 c 21.5988,-0.590287 37.53501,8.034638 49.95886,20.5310392 z"
       id="path3768"
       sodipodi:nodetypes="cssscscsccscsssssssssccscccscscsssss" />
    <path
       style="fill:url(#radialGradient4035);stroke:none;stroke-width:1px;stroke-linecap:butt;stroke-linejoin:miter;stroke-opacity:1;fill-opacity:1"
       d="m 47.563574,168.42745 c 0,0 15.050303,-3.13707 22.584144,-2.39529 7.252371,0.71406 18.707173,4.99996 23.43385,10.55659 0,0 7.444502,5.88476 9.823472,10.5176 2.11614,4.12103 4.42253,13.13101 4.42253,13.13101 l -6.85688,8.40331 c -3.76085,4.60904 -10.266022,7.40264 -16.028104,8.88101 -13.728359,3.52226 -32.671599,1.44134 -45.36809,-2.39271 -6.870432,-2.07472 -16.738077,-6.09436 -18.429124,-10.90884 -1.247948,-3.55296 -1.088362,-8.14178 0.798516,-11.49762 0,0 3.67996,-9.14106 7.005105,-12.65967 4.94628,-5.23406 18.614581,-11.63539 18.614581,-11.63539 z"
       id="path3772"
       sodipodi:nodetypes="cssscssssssc" />
    <path
       style="fill:url(#radialGradient4051);stroke:none;stroke-width:1px;stroke-linecap:butt;stroke-linejoin:miter;stroke-opacity:1;fill-opacity:1"
       d="m 120.24437,197.10316 c -1.41453,4.15378 1.84293,8.36336 5.33715,11.01763 11.90091,9.04013 29.72727,10.70836 43.79955,9.58116 0,0 24.71135,-2.3697 32.78077,-10.6766 4.45418,-4.58526 7.25484,-15.17813 -0.006,-25.26072 -5.41771,-7.52348 -17.96664,-12.65136 -26.55256,-12.65167 0,0 -21.72696,-3.12501 -31.8863,-0.001 -6.98518,2.14786 -15.77997,5.4008 -18.13575,12.31862 l -5.33715,15.67272 z"
       id="path3774"
       sodipodi:nodetypes="cssssssss" />
    <path
       style="fill:url(#radialGradient4053);stroke:none;stroke-width:1px;stroke-linecap:butt;stroke-linejoin:miter;stroke-opacity:1;fill-opacity:1"
       d="m 80.517719,13.34864 c -6.304018,2.840972 -11.049473,8.082662 -13.790699,13.892327 -4.040117,8.562492 -7.187006,20.73772 -1.369878,29.634504 5.817127,8.896784 12.739251,14.624797 18.144592,17.65593 5.381511,3.01777 16.617466,17.121347 27.708066,20.326493 1.58524,0.458128 3.48031,0.31559 4.92722,-0.477687 8.20747,-4.499779 13.2079,-15.096009 17.72582,-21.078763 1.49772,-1.983322 3.00829,-3.585665 5.20393,-4.450525 1.55554,-0.612724 4.99269,-1.367744 4.99269,-1.367744 0,0 11.47479,-5.238336 14.71391,-10.26552 3.39277,-5.265664 3.42184,-18.477935 3.42184,-18.477935 1.3159,-7.105874 -6.30907,-15.529238 -11.9753,-18.072568 -6.87501,-3.085904 -17.03794,0.544317 -23.81737,4.728534 L 115.316,32.238224 98.963492,13.48814 C 95.504337,9.5218098 84.388699,11.604142 80.517719,13.34864 z"
       id="path3778"
       sodipodi:nodetypes="cssssssscsssscss" />
    <path
       style="fill:url(#radialGradient4303);stroke:none;stroke-width:1px;stroke-linecap:butt;stroke-linejoin:miter;stroke-opacity:1;fill-opacity:1"
       d="m 102.6552,34.291328 c -7.142645,2.506044 -8.557291,15.613357 -4.652792,18.754651 5.470392,4.401102 10.202572,3.100525 13.207392,1.776388 2.59064,-1.141621 3.35294,-9.785549 2.32639,-11.154284 -1.02655,-1.368736 -3.53766,-11.95321 -10.88099,-9.376755 z"
       id="path3780"
       sodipodi:nodetypes="cssss" />
    <path
       style="fill:url(#radialGradient4311);stroke:none;stroke-width:1px;stroke-linecap:butt;stroke-linejoin:miter;stroke-opacity:1;fill-opacity:1"
       d="m 122.09194,54.821225 c 2.39528,-1.368734 6.81577,-10.281493 4.24285,-13.552998 l -3.76403,-4.786008 c -1.89857,-2.414055 -6.637,-0.277858 -8.07577,3.351805 -0.50438,1.272416 -2.08393,8.081499 -0.0689,11.087674 2.36803,3.532791 4.34805,3.944597 7.66584,3.899527 z"
       id="path3782"
       sodipodi:nodetypes="cssssc" />
    <path
       style="fill:url(#linearGradient3802);stroke:none;stroke-width:1px;stroke-linecap:butt;stroke-linejoin:miter;stroke-opacity:1;fill-opacity:1"
       d="m 61.047679,31.487246 c 0,0 -5.883809,-16.150673 4.240569,-32.6486915 C 74.31168,-11.884689 89.27777,-22.889534 110.15456,-23.45294 c 10.58776,-0.285734 21.38078,2.693617 28.97882,7.306577 11.97644,7.5280471 18.01276,13.0471035 21.96638,23.402872 2.06511,5.409161 0.61434,17.864744 0.61434,17.864744 0,0 -10.10833,-10.251765 -17.99683,-10.676596 -21.64133,-1.165481 -29.15682,10.676597 -29.15682,10.676597 L 104.7772,12.393837 C 100.35616,6.6423306 92.043644,3.0594692 84.726125,4.5902145 73.713374,6.8939624 65.970217,15.018071 61.047679,31.487246 z"
       id="path3784"
       sodipodi:nodetypes="ccscscscssc" />
    <path
       style="fill:none;stroke:#000000;stroke-width:1px;stroke-linecap:butt;stroke-linejoin:miter;stroke-opacity:1"
       d="m 60.224382,29.500752 0,0 z"
       id="path3786" />
    <path
       style="fill:url(#radialGradient4009);stroke:none;stroke-width:1px;stroke-linecap:butt;stroke-linejoin:miter;stroke-opacity:1;fill-opacity:1"
       d="M 75.622661,69.878463 57.831378,88.762909 c -5.519843,5.859001 -11.0178,14.398651 -13.20755,24.181921 -2.814449,12.57427 -3.536609,22.88959 -2.374553,31.98507 1.932082,15.12251 5.715984,23.5518 5.715984,23.5518 0,0 12.070439,-2.61946 18.372201,-2.59648 5.780355,0.0211 20.003967,4.74376 26.995529,10.3869 4.826461,3.89561 8.920821,8.40811 10.895331,14.32954 l 3.21745,9.6489 8.89679,0.3686 4.69211,3.0076 c 0,0 -1.80123,-2.29086 -0.84729,-5.67788 1.65256,-5.8675 3.30723,-9.84122 6.35295,-18.57154 1.89781,-5.43993 15.34579,-10.27329 22.06739,-10.96453 11.62343,-1.31517 19.48547,0.26787 29.78948,0.9976 0,0 4.54232,-20.94939 4.11747,-31.09515 -0.2303,-5.49975 -1.79491,-17.95727 -3.60224,-23.15668 0,0 -5.04748,-13.99362 -8.84699,-20.301828 -6.9955,-11.614392 -27.7169,-28.742313 -27.7169,-28.742313 l 0.68437,0.684368 -27.03254,-7.870232 -40.377709,10.949888 z"
       id="path3776"
       sodipodi:nodetypes="cssscssscccssccssscccc" />
    <path
       style="fill:url(#linearGradient3945);fill-opacity:1;stroke:#000000;stroke-width:0.10000000000000001;stroke-linecap:butt;stroke-linejoin:miter;stroke-miterlimit:4;stroke-opacity:1;stroke-dasharray:none;filter:url(#filter3941)"
       d="m 89.757467,72.749601 c 1.521247,2.837442 17.461813,22.500735 22.077913,22.500735 4.6161,0 23.22824,-19.423336 23.22824,-24.039434 0,-4.616098 -2.5645,-10.770896 -7.35157,-12.138629 -4.78706,-1.367732 -8.37736,-3.077399 -14.87409,-2.393533 -6.49673,0.683867 -16.412796,2.906433 -18.977295,5.128999 -2.564499,2.222565 -6.16752,7.091473 -4.103198,10.941862 z"
       id="path3825"
       sodipodi:nodetypes="cssssss"
       transform="matrix(0.99990546,0,0,1.0957271,0.01059846,-5.2409975)" />
    <path
       sodipodi:nodetypes="cssssss"
       id="path3917"
       d="m 89.438796,72.11225 c 1.52124,2.837442 17.780524,20.174059 22.396624,20.174059 4.6161,0 22.90953,-17.09666 22.90953,-21.712758 0,-4.616098 -2.5645,-10.770896 -7.35157,-12.138629 -4.78706,-1.367732 -8.37736,-3.077399 -14.87409,-2.393533 -6.49673,0.683867 -16.412804,2.906433 -18.977304,5.128999 -2.5645,2.222565 -6.16752,7.091473 -4.10319,10.941862 z"
       style="fill:url(#linearGradient3919);fill-opacity:1;stroke:#000000;stroke-width:0.10000000000000001;stroke-linecap:butt;stroke-linejoin:miter;stroke-miterlimit:4;stroke-opacity:1;stroke-dasharray:none;filter:url(#filter3913)" />
    <path
       style="fill:url(#linearGradient4065);stroke:none;stroke-width:1px;stroke-linecap:butt;stroke-linejoin:miter;stroke-opacity:1;fill-opacity:1"
       d="m 68.982967,27.613647 c 0,0 6.980907,-12.155923 17.329569,-12.32667 12.944103,-0.213571 21.950594,15.754269 21.950594,15.754269 0,0 -11.335873,-3.656904 -20.948733,-4.108463 -7.475222,-0.351145 -20.715735,4.448895 -18.33143,0.680864 z"
       id="path4055"
       sodipodi:nodetypes="cscsc" />
    <path
       style="fill:url(#linearGradient4073);stroke:none;stroke-width:1px;stroke-linecap:butt;stroke-linejoin:miter;stroke-opacity:1;fill-opacity:1"
       d="m 131.29975,25.507625 c 0,0 2.51245,-2.705303 10.70994,-2.194014 10.63787,0.663498 12.78267,5.074724 15.90441,11.368805 2.29935,4.635987 0.34042,14.072826 0.34042,14.072826 -2.12271,7.062962 -12.25991,14.445637 -11.02051,11.28138 5.54063,-14.145487 3.95826,-20.854848 -0.92429,-27.483508 -5.17852,-7.030485 -16.86227,-7.045489 -15.00997,-7.045489 z"
       id="path4057"
       sodipodi:nodetypes="csscssc" />
    <path
       style="fill:url(#linearGradient4093);stroke:none;stroke-width:1px;stroke-linecap:butt;stroke-linejoin:miter;stroke-opacity:1;fill-opacity:1;filter:url(#filter4103)"
       d="m 65.709566,46.951636 c 0.766292,6.321912 5.747193,11.877531 9.003935,14.367981 3.256742,2.49045 10.919666,3.256742 10.919666,3.256742 0,0 -6.321912,-2.682023 -11.494385,-11.111239 -5.172474,-8.429215 -2.873597,-21.456184 -2.873597,-21.456184 -4.499717,4.379275 -5.946295,8.590364 -5.555619,14.9427 z"
       id="path4075"
       sodipodi:nodetypes="cscscc" />
    <path
       style="fill:url(#linearGradient4115);stroke:none;stroke-width:1px;stroke-linecap:butt;stroke-linejoin:miter;stroke-opacity:1;fill-opacity:1;filter:url(#filter4133)"
       d="m 97.510698,59.02074 c 0,0 11.685952,-1.724156 19.540442,8.812361 7.14113,9.579576 8.04608,14.559554 8.04608,14.559554 0,0 9.0964,-8.23985 9.0964,-11.305019 0,-4.214607 -0.17572,-5.925542 -2.0082,-8.61858 -3.29642,-4.844454 -10.15336,-6.9869 -21.07303,-6.029034 -10.91967,0.957865 -13.601692,2.580718 -13.601692,2.580718 z"
       id="path4107"
       sodipodi:nodetypes="cscsssc" />
    <path
       sodipodi:type="arc"
       style="fill:url(#radialGradient4177);fill-opacity:1;fill-rule:evenodd;stroke:none"
       id="path4137"
       sodipodi:cx="65.447945"
       sodipodi:cy="204.37045"
       sodipodi:rx="24.079903"
       sodipodi:ry="16.670702"
       d="m 89.527847,204.37045 a 24.079903,16.670702 0 1 1 -48.159805,0 24.079903,16.670702 0 1 1 48.159805,0 z"
       transform="translate(-6.7917676,-12.348668)" />
    <path
       sodipodi:type="arc"
       style="fill:url(#radialGradient4196);fill-opacity:1;fill-rule:evenodd;stroke:none"
       id="path4137-3"
       sodipodi:cx="65.447945"
       sodipodi:cy="204.37045"
       sodipodi:rx="24.079903"
       sodipodi:ry="16.670702"
       d="m 89.527847,204.37045 a 24.079903,16.670702 0 1 1 -48.159805,0 24.079903,16.670702 0 1 1 48.159805,0 z"
       transform="translate(98.17191,-12.966095)" />
    <path
       style="fill:url(#linearGradient4231);fill-opacity:1;stroke:none;filter:url(#filter4241)"
       d="M 5.508578,109.97365 C 9.6145706,104.85445 19.298586,95.957055 30.538089,86.707355 45.741632,74.195393 46.108913,56.906547 46.108913,56.906547 l 5.48514,23.040881 c 0,0 -13.271423,18.462638 -27.120725,24.736562 -16.3156584,7.39122 -32.5305123,22.20297 -26.4696992,14.64656 l 7.5049492,-9.3569 z"
       id="path4223"
       sodipodi:nodetypes="csccsss" />
    <path
       style="fill:url(#linearGradient4253);fill-opacity:1;stroke:#000000;stroke-width:1px;stroke-linecap:butt;stroke-linejoin:miter;stroke-opacity:1;filter:url(#filter4271)"
       d="m 172.57787,81.70752 c 0,0 11.79103,11.791035 19.29441,15.006771 7.50339,3.21574 17.86521,10.719119 24.65399,17.507899 6.78878,6.78878 13.22025,8.9326 13.22025,8.9326 0,0 -3.36293,-8.57144 -11.79103,-18.57981 C 206.52176,90.997427 199.01837,94.927772 190.08577,82.064825 181.15317,69.201878 176.15091,67.415357 176.15091,67.415357 l -3.57304,14.292163 z"
       id="path4245"
       sodipodi:nodetypes="csscsscc" />
    <path
       style="fill:url(#linearGradient4285);stroke:none;stroke-width:1px;stroke-linecap:butt;stroke-linejoin:miter;stroke-opacity:1;fill-opacity:1;filter:url(#filter4337)"
       d="m 101.72955,37.143807 c 0,0 3.56305,2.992056 3.73854,6.583906 0.16949,3.469087 3.80048,1.133286 3.80048,1.133286 l 2.64634,-1.509596 c 0,0 -1.48709,-6.582079 -5.67438,-7.724068 -4.18729,-1.141989 -3.93998,1.897134 -4.51098,1.516472 z"
       id="path4277"
       sodipodi:nodetypes="csccsc" />
    <path
       style="fill:url(#linearGradient4295);stroke:none;stroke-width:1px;stroke-linecap:butt;stroke-linejoin:miter;stroke-opacity:1;fill-opacity:1;filter:url(#filter4341)"
       d="m 117.91732,39.159758 c 0,0 3.75338,5.568508 2.80173,7.091159 -0.95166,1.522652 5.25593,-3.431213 5.25593,-3.431213 0,0 -2.78162,-5.514366 -6.01726,-5.514366 -3.23563,0 -1.87452,0.05414 -2.0404,1.85442 z"
       id="path4287"
       sodipodi:nodetypes="cscsc" />
    <path
       style="fill:url(#linearGradient4353);fill-opacity:1;stroke:none;filter:url(#filter4359)"
       d="m 97.206767,43.743384 c 0,0 -0.08634,2.607797 1.745028,4.75019 1.285265,1.503542 1.598365,3.08149 2.741775,3.779034 2.44141,1.489384 1.1067,1.456717 3.6736,1.785531 -2.67752,1.85781 -4.89624,-0.19585 -6.528321,-2.546047 -2.294249,-3.303726 -1.827931,-7.507575 -1.632082,-7.768708 z"
       id="path4345"
       sodipodi:nodetypes="csscsc"
       transform="matrix(1.0545561,0,0,1,-5.2394904,0)" />
    <path
       style="fill:url(#linearGradient4382);fill-opacity:1;stroke:none;filter:url(#filter4359-9)"
       d="m 114.23541,43.448387 c 0,0 0.16436,2.481534 1.57667,4.951651 0.53771,0.940445 2.22405,2.725798 3.36746,3.423342 2.44141,1.489384 0.64937,1.610948 3.21627,1.939762 -2.67752,1.85781 -4.89624,-0.19585 -6.52832,-2.546047 -2.29425,-3.303726 -1.82793,-7.507575 -1.63208,-7.768708 z"
       id="path4345-3"
       sodipodi:nodetypes="csscsc"
       transform="matrix(0.92409979,0,0,0.94986343,8.9082455,2.3897062)" />
  </g>
</svg>
